<?xml version="1.0" encoding="UTF-8" standalone="no"?>
<!-- Created with Inkscape (http://www.inkscape.org/) -->
<svg
   xmlns:dc="http://purl.org/dc/elements/1.1/"
   xmlns:cc="http://creativecommons.org/ns#"
   xmlns:rdf="http://www.w3.org/1999/02/22-rdf-syntax-ns#"
   xmlns:svg="http://www.w3.org/2000/svg"
   xmlns="http://www.w3.org/2000/svg"
   xmlns:xlink="http://www.w3.org/1999/xlink"
   xmlns:sodipodi="http://sodipodi.sourceforge.net/DTD/sodipodi-0.dtd"
   xmlns:inkscape="http://www.inkscape.org/namespaces/inkscape"
   width="693.67889"
   height="361.16739"
   id="svg2"
   sodipodi:version="0.32"
   inkscape:version="0.46"
   sodipodi:docname="dessin.svg"
   inkscape:output_extension="org.inkscape.output.svg.inkscape"
   version="1.0">
  <defs
     id="defs4">
    <linearGradient
       id="linearGradient3393">
      <stop
         style="stop-color:#000080;stop-opacity:1;"
         offset="0"
         id="stop3395" />
      <stop
         style="stop-color:#ffffff;stop-opacity:1;"
         offset="1"
         id="stop3397" />
    </linearGradient>
    <linearGradient
       id="linearGradient3360">
      <stop
         id="stop3362"
         offset="0"
         style="stop-color:#000080;stop-opacity:1;" />
      <stop
         id="stop3364"
         offset="1"
         style="stop-color:#ffffff;stop-opacity:1;" />
    </linearGradient>
    <linearGradient
       id="linearGradient3322">
      <stop
         style="stop-color:#898989;stop-opacity:1;"
         offset="0"
         id="stop3324" />
      <stop
         style="stop-color:#ffffff;stop-opacity:1;"
         offset="1"
         id="stop3326" />
    </linearGradient>
    <linearGradient
       id="linearGradient4745">
      <stop
         style="stop-color:#00ffff;stop-opacity:1;"
         offset="0"
         id="stop4747" />
      <stop
         style="stop-color:#ffffff;stop-opacity:1;"
         offset="1"
         id="stop4749" />
    </linearGradient>
    <linearGradient
       inkscape:collect="always"
       id="linearGradient4721">
      <stop
         style="stop-color:#ffffff;stop-opacity:1;"
         offset="0"
         id="stop4723" />
      <stop
         style="stop-color:#ffffff;stop-opacity:0;"
         offset="1"
         id="stop4725" />
    </linearGradient>
    <linearGradient
       inkscape:collect="always"
       id="linearGradient4713">
      <stop
         style="stop-color:#ff0000;stop-opacity:1;"
         offset="0"
         id="stop4715" />
      <stop
         style="stop-color:#ff0000;stop-opacity:0;"
         offset="1"
         id="stop4717" />
    </linearGradient>
    <pattern
       inkscape:collect="always"
       xlink:href="#Strips1_1"
       id="pattern4703"
       patternTransform="matrix(10,0,0,10,-320.42856,-795.64795)" />
    <pattern
       inkscape:stockid="Stripes 1:1"
       id="Strips1_1"
       patternTransform="translate(0,0) scale(10,10)"
       height="1"
       width="2"
       patternUnits="userSpaceOnUse"
       inkscape:collect="always">
      <rect
         id="rect3966"
         height="2"
         width="1"
         y="-0.5"
         x="0"
         style="fill:black;stroke:none" />
    </pattern>
    <linearGradient
       inkscape:collect="always"
       id="linearGradient3233">
      <stop
         style="stop-color:#ffff00;stop-opacity:1;"
         offset="0"
         id="stop3235" />
      <stop
         style="stop-color:#ffff00;stop-opacity:0;"
         offset="1"
         id="stop3237" />
    </linearGradient>
    <linearGradient
       id="linearGradient3160">
      <stop
         style="stop-color:#000000;stop-opacity:1;"
         offset="0"
         id="stop3162" />
      <stop
         style="stop-color:#f2f2f2;stop-opacity:1"
         offset="1"
         id="stop3164" />
    </linearGradient>
    <linearGradient
       id="linearGradient3216">
      <stop
         style="stop-color:#000000;stop-opacity:1;"
         offset="0"
         id="stop3218" />
      <stop
         style="stop-color:#bebebe;stop-opacity:1;"
         offset="1"
         id="stop3220" />
    </linearGradient>
    <inkscape:perspective
       sodipodi:type="inkscape:persp3d"
       inkscape:vp_x="0 : 526.18109 : 1"
       inkscape:vp_y="0 : 1000 : 0"
       inkscape:vp_z="744.09448 : 526.18109 : 1"
       inkscape:persp3d-origin="372.04724 : 350.78739 : 1"
       id="perspective10" />
    <inkscape:perspective
       id="perspective2390"
       inkscape:persp3d-origin="372.04724 : 350.78739 : 1"
       inkscape:vp_z="744.09448 : 526.18109 : 1"
       inkscape:vp_y="0 : 1000 : 0"
       inkscape:vp_x="0 : 526.18109 : 1"
       sodipodi:type="inkscape:persp3d" />
    <linearGradient
       inkscape:collect="always"
       xlink:href="#linearGradient3216"
       id="linearGradient3226"
       gradientUnits="userSpaceOnUse"
       x1="304.07608"
       y1="901.64789"
       x2="357.35251"
       y2="901.64789" />
    <linearGradient
       inkscape:collect="always"
       xlink:href="#linearGradient3160"
       id="linearGradient3184"
       gradientUnits="userSpaceOnUse"
       gradientTransform="matrix(0.7942975,0,0,0.7154979,276.50663,398.96701)"
       x1="377.14285"
       y1="843.79071"
       x2="418.57141"
       y2="869.505" />
    <linearGradient
       inkscape:collect="always"
       xlink:href="#linearGradient3160"
       id="linearGradient3220"
       gradientUnits="userSpaceOnUse"
       gradientTransform="matrix(0.7942975,0,0,0.7154979,243.46338,399.24763)"
       x1="377.14285"
       y1="843.79071"
       x2="418.57141"
       y2="869.505" />
    <linearGradient
       inkscape:collect="always"
       xlink:href="#linearGradient3216"
       id="linearGradient3225"
       gradientUnits="userSpaceOnUse"
       x1="304.07608"
       y1="901.64789"
       x2="357.35251"
       y2="901.64789" />
    <linearGradient
       inkscape:collect="always"
       xlink:href="#linearGradient3233"
       id="linearGradient3242"
       gradientUnits="userSpaceOnUse"
       x1="350.52295"
       y1="821.02704"
       x2="350.52295"
       y2="793.77325"
       gradientTransform="translate(160.30424,106.24168)" />
    <pattern
       patternUnits="userSpaceOnUse"
       width="349.14316"
       height="21.999382"
       patternTransform="matrix(1.015081,0,0,1.015081,320.42856,795.64795)"
       id="pattern4700">
      <rect
         ry="1.4285715"
         y="1"
         x="1"
         height="19.999382"
         width="347.14316"
         id="rect4682"
         style="opacity:1;fill:url(#pattern4703);fill-opacity:1;stroke:#ec4500;stroke-width:2;stroke-linejoin:round;stroke-miterlimit:4;stroke-dasharray:none;stroke-opacity:1" />
    </pattern>
    <linearGradient
       inkscape:collect="always"
       xlink:href="#linearGradient4713"
       id="linearGradient4719"
       x1="427.57144"
       y1="1240.9336"
       x2="459.57144"
       y2="1240.9336"
       gradientUnits="userSpaceOnUse"
       gradientTransform="matrix(1.2255473,0,0,1.1520274,68.62012,-466.65663)" />
    <linearGradient
       inkscape:collect="always"
       xlink:href="#linearGradient4721"
       id="linearGradient4727"
       x1="443.28574"
       y1="1009.505"
       x2="475.28574"
       y2="1009.505"
       gradientUnits="userSpaceOnUse"
       gradientTransform="matrix(1.2255473,0,0,1.1520274,49.361515,-200.04458)" />
    <linearGradient
       inkscape:collect="always"
       xlink:href="#linearGradient4713"
       id="linearGradient4731"
       gradientUnits="userSpaceOnUse"
       gradientTransform="matrix(1.2255473,0,0,1.1520274,118.62008,-467.37086)"
       x1="427.57144"
       y1="1240.9336"
       x2="459.57144"
       y2="1240.9336" />
    <linearGradient
       inkscape:collect="always"
       xlink:href="#linearGradient4721"
       id="linearGradient4733"
       gradientUnits="userSpaceOnUse"
       gradientTransform="matrix(1.2255473,0,0,1.1520274,99.36148,-200.75881)"
       x1="443.28574"
       y1="1009.505"
       x2="475.28574"
       y2="1009.505" />
    <linearGradient
       inkscape:collect="always"
       xlink:href="#linearGradient4745"
       id="linearGradient4751"
       x1="334.71429"
       y1="1002.3621"
       x2="376.71429"
       y2="1002.3621"
       gradientUnits="userSpaceOnUse"
       gradientTransform="translate(149.38075,-48.715006)" />
    <linearGradient
       inkscape:collect="always"
       xlink:href="#linearGradient3160"
       id="linearGradient3213"
       x1="294"
       y1="1061.1279"
       x2="318.5"
       y2="1079.3108"
       gradientUnits="userSpaceOnUse"
       gradientTransform="translate(149.38075,-48.715006)" />
    <linearGradient
       inkscape:collect="always"
       xlink:href="#linearGradient3160"
       id="linearGradient3229"
       x1="573.17853"
       y1="1086.9755"
       x2="521.10712"
       y2="1064.8917"
       gradientUnits="userSpaceOnUse"
       gradientTransform="translate(149.38075,-48.715006)" />
    <linearGradient
       inkscape:collect="always"
       xlink:href="#linearGradient3160"
       id="linearGradient3238"
       x1="318.5"
       y1="1079.3108"
       x2="294"
       y2="1061.1279"
       gradientUnits="userSpaceOnUse"
       gradientTransform="translate(149.38075,-48.715006)" />
    <linearGradient
       inkscape:collect="always"
       xlink:href="#linearGradient3160"
       id="linearGradient3246"
       x1="521.10712"
       y1="1075.9336"
       x2="573.17853"
       y2="1075.9336"
       gradientUnits="userSpaceOnUse"
       gradientTransform="translate(149.38075,-48.715006)" />
    <inkscape:perspective
       id="perspective3255"
       inkscape:persp3d-origin="372.04724 : 350.78739 : 1"
       inkscape:vp_z="744.09448 : 526.18109 : 1"
       inkscape:vp_y="0 : 1000 : 0"
       inkscape:vp_x="0 : 526.18109 : 1"
       sodipodi:type="inkscape:persp3d" />
    <inkscape:perspective
       id="perspective3296"
       inkscape:persp3d-origin="372.04724 : 350.78739 : 1"
       inkscape:vp_z="744.09448 : 526.18109 : 1"
       inkscape:vp_y="0 : 1000 : 0"
       inkscape:vp_x="0 : 526.18109 : 1"
       sodipodi:type="inkscape:persp3d" />
    <linearGradient
       inkscape:collect="always"
       xlink:href="#linearGradient3322"
       id="linearGradient3331"
       gradientUnits="userSpaceOnUse"
       x1="314.22845"
       y1="361.84381"
       x2="390.80704"
       y2="431.82715"
       gradientTransform="matrix(1.1462089,-0.1220019,0.1220019,1.1462089,-115.67119,-52.25189)" />
    <linearGradient
       inkscape:collect="always"
       xlink:href="#linearGradient3360"
       id="linearGradient3358"
       x1="122.85714"
       y1="349.50507"
       x2="214.28572"
       y2="372.36221"
       gradientUnits="userSpaceOnUse"
       gradientTransform="translate(194.28571,211.42857)" />
  </defs>
  <sodipodi:namedview
     id="base"
     pagecolor="#ffffff"
     bordercolor="#666666"
     borderopacity="1.0"
     inkscape:pageopacity="0.0"
     inkscape:pageshadow="2"
     inkscape:zoom="0.35"
     inkscape:cx="361.43094"
     inkscape:cy="150.9154"
     inkscape:document-units="px"
     inkscape:current-layer="layer1"
     showgrid="false"
     inkscape:window-width="918"
     inkscape:window-height="827"
     inkscape:window-x="1777"
     inkscape:window-y="181" />
  <metadata
     id="metadata7">
    <rdf:RDF>
      <cc:Work
         rdf:about="">
        <dc:format>image/svg+xml</dc:format>
        <dc:type
           rdf:resource="http://purl.org/dc/dcmitype/StillImage" />
      </cc:Work>
    </rdf:RDF>
  </metadata>
  <g
     inkscape:label="Calque 1"
     inkscape:groupmode="layer"
     id="layer1"
     transform="translate(-28.880399,-693.7906)">
    <path
       style="fill:#999999;fill-opacity:1;stroke:none;stroke-width:1;stroke-linejoin:round;stroke-miterlimit:4;stroke-opacity:1"
       d="M 445.53518,752.13161 L 515.0353,774.26534 L 509.89427,787.59394 L 443.96557,759.03165 L 445.53518,752.13161 z"
       id="rect3403"
       sodipodi:nodetypes="ccccc" />
    <g
       id="g3369"
       transform="matrix(0.3660069,0,0,0.3660069,385.5568,589.73772)">
      <path
         sodipodi:nodetypes="csccc"
         id="rect3350"
         d="M 298.57142,436.6479 C 298.57142,436.6479 356.77956,413.1425 371.42857,429.50505 C 418.82568,482.44637 404.67458,628.14404 404.67458,628.14404 C 404.67458,628.14404 319.91062,590.21563 282.85714,592.3622 C 279.56704,543.59037 298.57142,436.6479 298.57142,436.6479 z"
         style="fill:url(#linearGradient3358);fill-opacity:1;stroke:none;stroke-width:1;stroke-linejoin:round;stroke-miterlimit:4;stroke-opacity:1" />
      <path
         transform="matrix(1.1526835,0,0,1.1526835,-71.056907,-89.56845)"
         d="M 406.08131,396.77319 A 61.619305,65.659912 0 1 1 282.8427,396.77319 A 61.619305,65.659912 0 1 1 406.08131,396.77319 z"
         sodipodi:ry="65.659912"
         sodipodi:rx="61.619305"
         sodipodi:cy="396.77319"
         sodipodi:cx="344.46201"
         id="path3287"
         style="opacity:1;fill:#ffd5d5;fill-opacity:1;stroke:#000000;stroke-width:1;stroke-linejoin:round;stroke-miterlimit:4;stroke-dasharray:none;stroke-opacity:1"
         sodipodi:type="arc" />
      <path
         sodipodi:nodetypes="cccss"
         id="rect3347"
         d="M 274.15594,419.04125 C 288.307,416.32364 298.09126,406.46463 303.79585,393.59845 C 305.44383,393.75852 307.55187,396.07376 307.41038,397.6931 C 301.92068,408.12589 290.29397,422.05682 276.11164,422.82982 C 274.81542,422.90046 272.8819,419.28592 274.15594,419.04125 z"
         style="fill:#000000;fill-opacity:1;stroke:none;stroke-width:1;stroke-linejoin:round;stroke-miterlimit:4;stroke-opacity:1" />
      <path
         sodipodi:nodetypes="cccccssc"
         id="path3320"
         d="M 398.18988,352.99038 C 402.61175,394.53389 394.55891,405.90399 355.57193,410.05375 C 336.07844,412.12863 340.48342,408.65032 315.60657,410.56195 C 318.97438,391.28029 310.84703,366.25723 295.50412,356.59716 C 286.31743,348.73666 256.75143,347.53266 231.5626,346.85534 C 251.52887,338.49846 266.29643,320.10563 271.96336,312.61424 C 283.29721,297.63149 300.05717,287.32296 319.55066,285.24808 C 358.53764,281.09833 393.76802,311.44688 398.18988,352.99038 z"
         style="fill:url(#linearGradient3331);fill-opacity:1;stroke:#000000;stroke-width:1.1526835;stroke-linejoin:round;stroke-miterlimit:4;stroke-opacity:1" />
      <path
         sodipodi:nodetypes="ccccccc"
         id="rect3333"
         d="M 275.18657,308.66671 L 283.42344,311.52386 C 286.83023,311.52386 277.43001,318.55221 277.43001,321.959 L 293.1443,337.51729 C 286.71573,342.35265 291.11594,344.381 287.70915,344.381 C 287.70915,344.381 255.6443,333.78121 255.6443,330.37443 C 255.6443,330.37443 273.0298,312.23814 275.18657,308.66671 z"
         style="fill:#000000;fill-opacity:1;stroke:none;stroke-width:1;stroke-linejoin:round;stroke-miterlimit:4;stroke-opacity:1" />
      <path
         transform="translate(20.287163,61.30452)"
         d="M 315.71428,281.64789 A 6.4285712,6.4285712 0 1 1 302.85713,281.64789 A 6.4285712,6.4285712 0 1 1 315.71428,281.64789 z"
         sodipodi:ry="6.4285712"
         sodipodi:rx="6.4285712"
         sodipodi:cy="281.64789"
         sodipodi:cx="309.28571"
         id="path3337"
         style="opacity:1;fill:#000000;fill-opacity:1;stroke:#000000;stroke-width:1;stroke-linejoin:round;stroke-miterlimit:4;stroke-dasharray:none;stroke-opacity:1"
         sodipodi:type="arc" />
      <path
         transform="translate(13.858593,110.59025)"
         d="M 315.71428,281.64789 A 6.4285712,6.4285712 0 1 1 302.85713,281.64789 A 6.4285712,6.4285712 0 1 1 315.71428,281.64789 z"
         sodipodi:ry="6.4285712"
         sodipodi:rx="6.4285712"
         sodipodi:cy="281.64789"
         sodipodi:cx="309.28571"
         id="path3339"
         style="opacity:1;fill:#000000;fill-opacity:1;stroke:#000000;stroke-width:1;stroke-linejoin:round;stroke-miterlimit:4;stroke-dasharray:none;stroke-opacity:1"
         sodipodi:type="arc" />
      <path
         sodipodi:nodetypes="ccssc"
         id="rect3342"
         d="M 316.21831,409.96676 L 397.08128,389.96676 C 397.08128,389.96676 423.59103,441.39823 412.79556,460.04364 C 404.45387,474.45102 375.45605,482.10452 359.78973,476.47221 C 337.34399,468.4026 316.21831,409.96676 316.21831,409.96676 z"
         style="fill:#000000;fill-opacity:1;stroke:none;stroke-width:1;stroke-linejoin:round;stroke-miterlimit:4;stroke-opacity:1" />
      <path
         transform="translate(195.29587,63.9463)"
         d="M 86.873116,304.34424 A 8.586297,6.5659914 0 1 1 69.700522,304.34424 A 8.586297,6.5659914 0 1 1 86.873116,304.34424 z"
         sodipodi:ry="6.5659914"
         sodipodi:rx="8.586297"
         sodipodi:cy="304.34424"
         sodipodi:cx="78.286819"
         id="path3345"
         style="opacity:1;fill:#800000;fill-opacity:1;stroke:none;stroke-width:1;stroke-linejoin:round;stroke-miterlimit:4;stroke-dasharray:none;stroke-opacity:1"
         sodipodi:type="arc" />
    </g>
    <rect
       style="opacity:1;fill:#000000;fill-opacity:1;stroke:none;stroke-width:1;stroke-linejoin:round;stroke-miterlimit:4;stroke-dasharray:none;stroke-opacity:1"
       id="rect3401"
       width="47.963993"
       height="19.005796"
       x="988.35046"
       y="612.91101"
       transform="matrix(0.9366116,0.3503694,-0.617949,0.7862182,0,0)" />
    <rect
       style="fill:#b3b3b3;fill-opacity:1;stroke:#000000;stroke-width:1.49429977;stroke-miterlimit:4;stroke-dasharray:none;stroke-opacity:1"
       width="255.36272"
       height="16.790794"
       x="875.57367"
       y="303.71622"
       id="rect4705"
       transform="matrix(0.7789817,0.6270466,-0.6270466,0.7789817,0,0)" />
    <path
       sodipodi:type="arc"
       style="opacity:1;fill:#ffa400;fill-opacity:1;stroke:#ffffff;stroke-width:2;stroke-linejoin:round;stroke-miterlimit:4;stroke-dasharray:none;stroke-opacity:1"
       id="path4753"
       sodipodi:cx="477.85715"
       sodipodi:cy="1267.3622"
       sodipodi:rx="27.857143"
       sodipodi:ry="27.857143"
       d="M 505.71429,1267.3622 A 27.857143,27.857143 0 1 1 450,1267.3622 A 27.857143,27.857143 0 1 1 505.71429,1267.3622 z"
       transform="matrix(0.8514852,0,0,0.8514852,256.06392,-143.35005)" />
    <rect
       style="opacity:1;fill:#ffa400;fill-opacity:1;stroke:#ffffff;stroke-width:2;stroke-linejoin:round;stroke-miterlimit:4;stroke-dasharray:none;stroke-opacity:1"
       id="rect4755"
       width="27.142857"
       height="38.57143"
       x="690.80933"
       y="981.64716" />
    <path
       style="fill:#d40000;fill-opacity:1;stroke:#000000;stroke-width:1.03397846;stroke-linejoin:round;stroke-miterlimit:4;stroke-opacity:1"
       d="M 479.01648,930.6946 C 481.14552,928.56556 485.26481,927.66415 485.26481,927.66415 L 538.23269,927.66415 C 538.23269,927.66415 543.07268,928.56508 545.1735,930.69461 C 547.19554,932.74428 548.07371,937.26056 548.07371,937.26056 L 547.94346,967.06006 L 583.16854,967.56516 L 583.03829,939.78596 L 691.9153,939.28086 C 691.9153,939.28086 694.81547,939.51336 696.14946,940.74016 C 697.36366,941.85676 697.93517,944.27436 697.93517,944.27436 L 697.93517,1029.0587 L 456.54059,1029.0587 L 456.54059,990.75576 C 456.54059,990.75576 456.99482,988.16276 457.43345,987.27416 C 457.92838,986.27156 459.49925,985.18626 459.49925,985.18626 L 476.74364,972.20566 L 476.74364,936.80294 C 476.74364,936.80294 477.07785,932.63323 479.01648,930.6946 z"
       id="rect3190"
       sodipodi:nodetypes="cccscccccsccccscccs" />
    <rect
       style="opacity:1;fill:#000000;fill-opacity:1;stroke:none;stroke-width:1;stroke-linejoin:round;stroke-miterlimit:4;stroke-dasharray:none;stroke-opacity:1"
       id="rect3198"
       width="30"
       height="29.029657"
       x="1748.2333"
       y="1612.028"
       transform="matrix(1,0,-0.787372,0.6164781,0,0)" />
    <rect
       style="opacity:1;fill:#ffffff;fill-opacity:1;stroke:none;stroke-width:1;stroke-linejoin:round;stroke-miterlimit:4;stroke-dasharray:none;stroke-opacity:1"
       id="rect3200"
       width="30"
       height="29.029655"
       x="1778.0546"
       y="1612.0278"
       transform="matrix(1,0,-0.787372,0.6164781,0,0)" />
    <rect
       style="opacity:1;fill:#000000;fill-opacity:1;stroke:none;stroke-width:1;stroke-linejoin:round;stroke-miterlimit:4;stroke-dasharray:none;stroke-opacity:1"
       id="rect3206"
       width="30"
       height="29.029655"
       x="1808.0548"
       y="1612.0281"
       transform="matrix(1,0,-0.787372,0.6164781,0,0)" />
    <rect
       style="opacity:1;fill:#ffffff;fill-opacity:1;stroke:none;stroke-width:1;stroke-linejoin:round;stroke-miterlimit:4;stroke-dasharray:none;stroke-opacity:1"
       id="rect3208"
       width="30"
       height="29.029655"
       x="1838.0548"
       y="1612.028"
       transform="matrix(1,0,-0.787372,0.6164781,0,0)" />
    <rect
       style="opacity:1;fill:#ffffff;fill-opacity:1;stroke:none;stroke-width:1;stroke-linejoin:round;stroke-miterlimit:4;stroke-dasharray:none;stroke-opacity:1"
       id="rect3212"
       width="30"
       height="29.029655"
       x="1897.91"
       y="1611.985"
       transform="matrix(1,0,-0.787372,0.6164781,0,0)" />
    <rect
       style="opacity:1;fill:#000000;fill-opacity:1;stroke:none;stroke-width:1;stroke-linejoin:round;stroke-miterlimit:4;stroke-dasharray:none;stroke-opacity:1"
       id="rect3210"
       width="30"
       height="29.029655"
       x="1868.0887"
       y="1611.985"
       transform="matrix(1,0,-0.787372,0.6164781,0,0)" />
    <rect
       style="opacity:1;fill:url(#linearGradient3184);fill-opacity:1;stroke:#000000;stroke-width:0.95053029;stroke-linejoin:round;stroke-miterlimit:4;stroke-dasharray:none;stroke-opacity:1"
       id="rect3182"
       width="32.906609"
       height="36.797039"
       x="576.07031"
       y="1002.6974"
       ry="10.73247" />
    <rect
       style="opacity:1;fill:url(#linearGradient3229);fill-opacity:1;stroke:url(#linearGradient3246);stroke-width:1;stroke-linejoin:round;stroke-miterlimit:4;stroke-dasharray:none;stroke-opacity:1"
       id="rect3196"
       width="51.071426"
       height="21.083746"
       x="670.98785"
       y="1016.6767"
       ry="6.149426" />
    <rect
       style="opacity:1;fill:#000000;fill-opacity:1;stroke:none;stroke-width:1;stroke-linejoin:round;stroke-miterlimit:4;stroke-dasharray:none;stroke-opacity:1"
       id="rect3214"
       width="30"
       height="29.029655"
       x="1927.9102"
       y="1611.9851"
       transform="matrix(1,0,-0.787372,0.6164781,0,0)" />
    <path
       style="fill:#ffffff;fill-opacity:1;stroke:none;stroke-width:1;stroke-linejoin:round;stroke-miterlimit:4;stroke-opacity:1"
       d="M 688.67838,993.75346 L 697.46518,993.75346 L 697.40078,1010.1515 L 695.82121,1011.6496 L 665.82121,1011.6496 L 688.67838,993.75346 z"
       id="rect3216"
       sodipodi:nodetypes="cccccc" />
    <path
       sodipodi:type="arc"
       style="opacity:1;fill:#b3b3b3;fill-opacity:1;stroke:url(#linearGradient3226);stroke-width:8.00500011;stroke-linejoin:round;stroke-miterlimit:4;stroke-dasharray:none;stroke-opacity:1"
       id="path3224"
       sodipodi:cx="330.71429"
       sodipodi:cy="901.64789"
       sodipodi:rx="19.285715"
       sodipodi:ry="19.285715"
       d="M 350.00001,901.64789 A 19.285715,19.285715 0 1 1 311.42858,901.64789 A 19.285715,19.285715 0 1 1 350.00001,901.64789 z"
       transform="translate(316.38074,125.42787)" />
    <rect
       style="opacity:1;fill:url(#linearGradient3220);fill-opacity:1;stroke:#000000;stroke-width:0.95053029;stroke-linejoin:round;stroke-miterlimit:4;stroke-dasharray:none;stroke-opacity:1"
       id="rect3218"
       width="32.906609"
       height="36.797039"
       x="543.02704"
       y="1002.9781"
       ry="10.73247" />
    <path
       sodipodi:type="arc"
       style="opacity:1;fill:#b3b3b3;fill-opacity:1;stroke:url(#linearGradient3225);stroke-width:8.00500011;stroke-linejoin:round;stroke-miterlimit:4;stroke-dasharray:none;stroke-opacity:1"
       id="path3223"
       sodipodi:cx="330.71429"
       sodipodi:cy="901.64789"
       sodipodi:rx="19.285715"
       sodipodi:ry="19.285715"
       d="M 350.00001,901.64789 A 19.285715,19.285715 0 1 1 311.42858,901.64789 A 19.285715,19.285715 0 1 1 350.00001,901.64789 z"
       transform="translate(160.23788,125.28501)" />
    <path
       style="fill:#ffffff;fill-opacity:1;stroke:none;stroke-width:1;stroke-linejoin:round;stroke-miterlimit:4;stroke-opacity:1"
       d="M 457.04154,993.78836 L 479.00584,993.78836 L 458.29164,1011.5059 L 456.86304,1011.5059 L 457.04154,993.78836 z"
       id="rect3227"
       sodipodi:nodetypes="ccccc" />
    <rect
       style="opacity:1;fill:url(#linearGradient3238);fill-opacity:1;stroke:url(#linearGradient3213);stroke-width:2;stroke-linejoin:round;stroke-miterlimit:4;stroke-dasharray:none;stroke-opacity:1"
       id="rect3192"
       width="22.499998"
       height="27.931034"
       x="444.38074"
       y="1007.5388"
       ry="8.1465511" />
    <path
       style="fill:url(#linearGradient3242);fill-opacity:1;stroke:#ec4500;stroke-width:2;stroke-linejoin:round;stroke-miterlimit:4;stroke-opacity:1"
       d="M 510.7379,901.63993 C 524.64693,901.52701 523.95917,926.26875 523.95917,926.26875 L 497.6952,926.26875 C 497.6952,926.26875 496.82785,901.75286 510.7379,901.63993 z"
       id="rect3231"
       sodipodi:nodetypes="cccz" />
    <rect
       style="opacity:1;fill:url(#linearGradient4719);fill-opacity:1;stroke:url(#linearGradient4727);stroke-width:2.37643766;stroke-linejoin:round;stroke-miterlimit:4;stroke-dasharray:none;stroke-opacity:1"
       id="rect4711"
       width="36.766418"
       height="29.623562"
       x="593.85474"
       y="948.12109" />
    <rect
       style="opacity:1;fill:url(#linearGradient4731);fill-opacity:1;stroke:url(#linearGradient4733);stroke-width:2.37643766;stroke-linejoin:round;stroke-miterlimit:4;stroke-dasharray:none;stroke-opacity:1"
       id="rect4729"
       width="36.766418"
       height="29.623562"
       x="643.85474"
       y="947.40686" />
    <rect
       style="opacity:1;fill:url(#linearGradient4751);fill-opacity:1;stroke:#ffffff;stroke-width:1.67091775;stroke-linejoin:round;stroke-miterlimit:4;stroke-dasharray:none;stroke-opacity:1"
       id="rect4735"
       width="40.329082"
       height="34.614796"
       x="484.93048"
       y="936.33978" />
    <g
       id="g3380"
       transform="translate(109.64286,-63.214285)">
      <path
         sodipodi:nodetypes="cszzcsssssc"
         style="fill:#d1eaef"
         d="M -56.357907,1098.4272 C -107.4162,1059.7125 -75.878137,971.79715 15.094382,899.24706 C 48.027146,872.98335 80.307904,859.58492 96.895429,833.41275 C 113.48295,807.24059 178.9073,775.56558 254.7864,794.98 C 329.76952,814.16519 309.01146,811.39026 335.41334,819.13453 C 323.98279,822.31648 309.91302,845.16386 304.14723,869.90649 C 298.00127,896.28053 278.54685,923.05281 257.12587,934.61515 C 232.88837,947.69775 220.5878,966.78609 220.5878,991.31587 C 220.5878,1038.8004 156.04328,1088.7102 103.54154,1081.8232 C 81.23969,1078.8977 55.313851,1085.3943 38.543046,1098.1107 C 3.3905827,1124.7648 -21.513371,1124.8479 -56.357907,1098.4272 z"
         id="path3275" />
      <path
         sodipodi:nodetypes="csscsssssc"
         style="fill:#a1d2de"
         d="M -37.803287,1085.5892 C -81.373157,1055.6914 -45.790527,982.60888 57.285236,890.28852 C 173.04281,786.60959 161.12693,794.07862 247.25494,802.92372 C 297.55636,808.08953 315.88858,815.62056 335.65002,817.32084 C 318.60713,825.35487 290.8634,861.12271 290.72354,874.86801 C 290.41022,905.66426 274.88872,922.07795 237.01123,931.66772 C 215.9145,937.00895 207.95228,951.61124 207.95228,984.96029 C 207.95228,1044.9265 159.59908,1081.0073 92.74018,1070.9307 C 59.115489,1065.8629 43.354832,1068.8335 36.225217,1081.5828 C 24.429198,1102.6766 -10.172836,1104.5493 -37.803287,1085.5892 z"
         id="path3273" />
      <path
         sodipodi:nodetypes="cssscsssssc"
         style="fill:#59b1c8"
         d="M -27.991687,1070.5248 C -56.077827,1047.3025 -12.858859,970.00273 61.691668,910.12059 C 92.123947,885.67609 118.92304,853.10512 128.32547,841.09113 C 142.74238,822.66988 177.39817,814.5717 249.52169,809.87065 C 299.46994,806.615 310.67365,814.64446 334.57517,817.82296 C 305.08396,826.61467 279.95566,865.59206 275.5761,879.41598 C 271.19655,893.2399 249.74057,912.58626 227.89613,922.4079 C 197.18972,936.21403 188.17897,950.39959 188.17897,984.93447 C 188.17897,1037.5557 137.57953,1071.6911 87.072728,1053.1428 C 45.087866,1037.7241 22.127907,1039.6921 22.127907,1058.7094 C 22.127907,1083.474 -4.6853553,1089.795 -27.991687,1070.5248 z"
         id="path3271" />
      <path
         style="fill:#539cb6"
         d="M 70.49922,1019.371 C 30.813567,987.56592 33.787602,976.09949 100.01909,905.55666 C 131.98393,871.51107 158.13698,840.21904 158.13698,836.01879 C 158.13698,827.22931 260.43351,814.85883 277.30065,821.60859 C 292.9994,827.89079 261.41989,899.00962 240.8376,903.72541 C 202.35335,912.54287 174.74207,943.63595 174.74207,978.15567 C 174.74207,1039.5134 121.76715,1060.4585 70.49922,1019.371 z"
         id="path3269" />
      <path
         style="fill:#38a4c2"
         d="M 70.49922,1019.371 C 30.311658,987.16369 34.060301,972.90798 100.01909,907.10994 C 131.98393,875.22302 158.13698,843.88261 158.13698,837.46457 C 158.13698,831.04654 184.43237,825.79542 216.57121,825.79542 C 271.89356,825.79542 274.42418,827.46415 264.09074,857.1302 C 249.50479,899.00461 243.14045,905.55666 217.05143,905.55666 C 189.39756,905.55666 174.74207,930.74503 174.74207,978.2737 C 174.74207,1039.5212 121.72351,1060.4235 70.49922,1019.371 z"
         id="path3267" />
      <path
         style="fill:#2d90b3"
         d="M 111.39947,985.01116 C 73.946887,963.93324 73.668337,962.36261 100.50142,923.56026 C 136.05245,872.15121 203.9714,825.79542 243.7432,825.79542 C 269.42339,825.79542 273.05655,831.39043 264.09074,857.1302 C 249.37787,899.36899 243.18087,905.55666 215.59122,905.55666 C 202.605,905.55666 187.56834,919.65731 182.17643,936.89143 C 161.07695,1004.3316 154.12614,1009.0573 111.39947,985.01116 z"
         id="path3265" />
      <path
         style="fill:#1d79a1"
         d="M 124.92676,923.52485 C 124.92676,914.6065 147.91844,891.5327 176.0194,872.24977 C 227.1143,837.18832 257.76761,827.965 257.76761,847.65242 C 257.76761,870.81184 236.32742,894.16219 215.06251,894.16219 C 202.66174,894.16219 184.51753,904.41721 174.74207,916.95112 C 154.16393,943.33603 124.92676,947.19423 124.92676,923.52485 z"
         id="path3263" />
    </g>
    <path
       sodipodi:type="arc"
       style="opacity:1;fill:#ffd5d5;fill-opacity:1;stroke:none;stroke-width:1;stroke-linejoin:round;stroke-miterlimit:4;stroke-dasharray:none;stroke-opacity:1"
       id="path3406"
       sodipodi:cx="450.35715"
       sodipodi:cy="740.57648"
       sodipodi:rx="8.9285717"
       sodipodi:ry="6.7857141"
       d="M 459.28572,740.57648 A 8.9285717,6.7857141 0 1 1 441.42858,740.57648 A 8.9285717,6.7857141 0 1 1 459.28572,740.57648 z"
       transform="translate(39.285714,26.428572)" />
  </g>
</svg>
